<?xml version="1.0" standalone="no"?>
<!DOCTYPE svg PUBLIC "-//W3C//DTD SVG 20010904//EN"
 "http://www.w3.org/TR/2001/REC-SVG-20010904/DTD/svg10.dtd">
<svg version="1.0" xmlns="http://www.w3.org/2000/svg"
 width="250px" height="600px" viewBox="0 0 2000.000000 3475.000000"
 preserveAspectRatio="xMidYMid meet">

<g transform="translate(0.000000,3475.000000) scale(0.100000,-0.100000)"
fill="#000000" stroke="none">
<path d="M6983 34741 c-73 -19 -144 -77 -182 -149 -33 -62 -30 -172 6 -250 10
-22 142 -163 330 -352 l313 -316 -2 -6999 -3 -6998 -205 -59 c-1946 -560
-3684 -1708 -4978 -3288 -1685 -2058 -2470 -4665 -2211 -7340 189 -1963 988
-3869 2256 -5392 369 -443 813 -890 1253 -1264 841 -714 1851 -1308 2910
-1712 826 -315 1741 -525 2646 -607 246 -22 1567 -22 1800 0 1128 107 2135
368 3154 816 188 82 636 306 815 406 647 363 1227 776 1795 1277 200 177 703
685 881 891 597 691 1039 1353 1434 2150 516 1042 819 2064 972 3280 27 210
27 210 31 1080 4 917 3 946 -44 1325 -310 2510 -1576 4821 -3534 6452 -845
705 -1803 1265 -2839 1662 -224 86 -631 221 -833 277 l-158 43 0 7005 0 7005
310 311 c345 346 354 358 354 476 0 111 -53 196 -158 252 -61 32 -175 31 -239
-3 -33 -17 -165 -142 -417 -394 -294 -295 -373 -379 -390 -417 l-20 -48 0
-7223 c0 -4091 4 -7236 9 -7254 14 -50 37 -87 78 -125 52 -50 86 -65 205 -94
151 -35 439 -118 633 -182 2011 -657 3752 -1980 4932 -3748 837 -1255 1360
-2687 1528 -4185 66 -590 73 -1342 19 -1925 -144 -1559 -658 -3027 -1519
-4335 -678 -1031 -1593 -1954 -2620 -2645 -382 -257 -669 -423 -1110 -640
-1146 -565 -2294 -868 -3625 -956 -227 -15 -864 -15 -1095 0 -1152 75 -2150
312 -3205 761 -191 81 -643 304 -850 421 -1516 848 -2777 2103 -3632 3614
-662 1169 -1063 2464 -1182 3810 -52 589 -45 1304 19 1875 172 1522 684 2932
1524 4195 800 1201 1873 2215 3111 2937 757 441 1542 765 2398 987 245 64 296
96 337 211 13 37 15 928 15 7276 l0 7234 -21 44 c-27 58 -738 770 -803 804
-48 26 -140 37 -193 23z"/>
</g>
</svg>
